<svg xmlns="http://www.w3.org/2000/svg" version="1.1" xmlns:xlink="http://www.w3.org/1999/xlink" viewBox="0 0 200 200"><rect width="200" height="200" fill="url('#gradient')"></rect><defs><linearGradient id="gradient" gradientTransform="rotate(45 0.5 0.5)"><stop offset="0%" stop-color="#000000"></stop><stop offset="100%" stop-color="#000000"></stop></linearGradient></defs><g><g fill="#000000" transform="matrix(4.878771836950768,0,0,4.878771836950768,4.764886205003265,131.71103852813746)" stroke="#00ff00" stroke-width="0.35"><path d="M6.69-4.82L4.50-4.82L4.50 0L1.07 0L1.07-14.22L6.75-14.22Q8.38-14.22 9.63-13.62Q10.89-13.02 11.58-11.91Q12.27-10.80 12.27-9.39L12.27-9.39Q12.27-7.31 10.78-6.07Q9.29-4.82 6.69-4.82L6.69-4.82ZM4.50-11.57L4.50-7.47L6.75-7.47Q7.74-7.47 8.27-7.97Q8.79-8.47 8.79-9.38L8.79-9.38Q8.79-10.37 8.25-10.97Q7.71-11.56 6.79-11.57L6.79-11.57L4.50-11.57ZM18.74 1.22L12.82-14.22L16.25-14.22L22.19 1.22L18.74 1.22ZM22.62-14.22L27.12-14.22L30.29-4.33L33.46-14.22L37.97-14.22L37.97 0L34.53 0L34.53-3.32L34.86-10.12L31.43 0L29.16 0L25.71-10.13L26.04-3.32L26.04 0L22.62 0L22.62-14.22Z"></path></g></g></svg>